<?xml version="1.0" encoding="UTF-8" standalone="yes" ?>
<svg xmlns="http://www.w3.org/2000/svg" height="452" width="452">
  <script type="text/ecmascript">
    <![CDATA[
      var shown = 1;
      function click() {
        var seq = document.getElementById("seq");
        if (shown==1) {
          seq.setAttribute("style", "visibility: hidden");
          shown = 0;
        } else {
          seq.setAttribute("style", "visibility: visible");
          shown = 1;
        }
      }
    ]]>
  </script>
  <style type="text/css">
    <![CDATA[
      .nucleotide {
        font-family: SansSerif;
      }
      .backbone {
        stroke: grey;
        fill:   none;
        stroke-width: 1.5;
      }
      .basepairs {
        stroke: red;
        fill:   none;
        stroke-width: 2.5;
      }
    ]]>
  </style>

  <rect style="stroke: white; fill: white" height="452" x="0" y="0" width="452" onclick="click(evt)" />
  <g transform="scale(1.116122,1.116122) translate(145.886002,94.160614)">
    <polyline class="backbone" id="outline" points="
      5.772,8.609
      11.255,22.571
      20.531,34.364
      6.161,30.062
      -8.209,25.760
      -22.579,21.458
      -35.884,14.532
      -47.650,5.228
      -59.417,-4.075
      -71.183,-13.379
      -82.949,-22.682
      -94.715,-31.986
      -106.482,-41.290
      -112.030,-56.722
      -128.215,-59.366
      -138.386,-46.502
      -132.081,-31.363
      -115.785,-29.523
      -104.019,-20.220
      -92.253,-10.916
      -80.486,-1.613
      -68.720,7.691
      -56.954,16.994
      -45.188,26.298
      -60.187,26.403
      -73.912,32.456
      -84.103,43.462
      -89.086,57.610
      -88.040,72.574
      -81.137,85.891
      -69.513,95.372
      -55.080,99.457
      -40.212,97.474
      -27.354,89.749
      -18.621,77.553
      -15.450,62.892
      -18.363,48.177
      -26.881,35.828
      -12.511,40.130
      1.859,44.432
      16.228,48.734
      18.941,52.814
      23.478,55.671
      29.244,56.503
      39.850,67.109
      50.457,77.716
      61.064,88.323
      71.670,98.929
      82.277,109.536
      82.382,124.025
      92.627,134.271
      107.117,134.376
      117.568,145.135
      127.861,156.046
      131.704,171.393
      146.066,175.341
      156.359,186.252
      166.653,197.162
      176.947,208.073
      187.240,218.984
      197.374,230.043
      192.467,244.597
      195.510,259.651
      205.684,271.157
      220.253,276.018
      235.298,272.928
      246.772,262.717
      251.588,248.133
      248.450,233.098
      238.204,221.657
      223.605,216.887
      208.579,220.071
      206.451,212.871
      198.151,208.690
      187.857,197.779
      177.564,186.869
      167.270,175.958
      156.976,165.048
      153.870,150.480
      138.772,145.752
      128.478,134.842
      126.141,127.706
      117.723,123.769
      117.618,109.280
      107.373,99.034
      92.883,98.929
      82.277,88.323
      71.670,77.716
      61.064,67.109
      50.457,56.503
      39.850,45.896
      54.629,48.463
      69.521,46.665
      83.264,40.654
      94.693,30.939
      102.840,18.345
      107.015,3.937
      106.864,-11.062
      102.398,-25.382
      93.998,-37.809
      82.375,-47.291
      68.513,-53.023
      53.588,-54.520
      38.864,-51.655
      25.590,-44.671
      14.889,-34.159
      7.669,-21.011
    " />
    <g id="pairs">
      <line class="basepairs" id="3,41" x1="20.53053" y1="34.36400" x2="16.22848" y2="48.73384" />
      <line class="basepairs" id="4,40" x1="6.16069" y1="30.06195" x2="1.85864" y2="44.43179" />
      <line class="basepairs" id="5,39" x1="-8.20915" y1="25.75990" x2="-12.51120" y2="40.12975" />
      <line class="basepairs" id="6,38" x1="-22.57900" y1="21.45786" x2="-26.88104" y2="35.82770" />
      <line class="basepairs" id="7,24" x1="-35.88416" y1="14.53163" x2="-45.18769" y2="26.29787" />
      <line class="basepairs" id="8,23" x1="-47.65039" y1="5.22810" x2="-56.95393" y2="16.99434" />
      <line class="basepairs" id="9,22" x1="-59.41663" y1="-4.07544" x2="-68.72016" y2="7.69080" />
      <line class="basepairs" id="10,21" x1="-71.18286" y1="-13.37897" x2="-80.48640" y2="-1.61273" />
      <line class="basepairs" id="11,20" x1="-82.94910" y1="-22.68250" x2="-92.25263" y2="-10.91626" />
      <line class="basepairs" id="12,19" x1="-94.71533" y1="-31.98604" x2="-104.01887" y2="-20.21980" />
      <line class="basepairs" id="13,18" x1="-106.48157" y1="-41.28957" x2="-115.78510" y2="-29.52333" />
      <line class="basepairs" id="44,91" x1="29.24382" y1="56.50281" x2="39.85043" y2="45.89621" />
      <line class="basepairs" id="45,90" x1="39.85043" y1="67.10942" x2="50.45703" y2="56.50281" />
      <line class="basepairs" id="46,89" x1="50.45703" y1="77.71602" x2="61.06363" y2="67.10942" />
      <line class="basepairs" id="47,88" x1="61.06363" y1="88.32262" x2="71.67023" y2="77.71602" />
      <line class="basepairs" id="48,87" x1="71.67023" y1="98.92922" x2="82.27683" y2="88.32262" />
      <line class="basepairs" id="49,86" x1="82.27683" y1="109.53582" x2="92.88343" y2="98.92922" />
      <line class="basepairs" id="52,83" x1="107.11657" y1="134.37555" x2="117.72317" y2="123.76896" />
      <line class="basepairs" id="53,81" x1="117.56779" y1="145.13530" x2="128.47839" y2="134.84167" />
      <line class="basepairs" id="54,80" x1="127.86141" y1="156.04590" x2="138.77202" y2="145.75229" />
      <line class="basepairs" id="56,78" x1="146.06564" y1="175.34126" x2="156.97626" y2="165.04764" />
      <line class="basepairs" id="57,77" x1="156.35927" y1="186.25188" x2="167.26988" y2="175.95825" />
      <line class="basepairs" id="58,76" x1="166.65289" y1="197.16248" x2="177.56351" y2="186.86885" />
      <line class="basepairs" id="59,75" x1="176.94652" y1="208.07309" x2="187.85713" y2="197.77945" />
      <line class="basepairs" id="60,74" x1="187.24014" y1="218.98369" x2="198.15076" y2="208.69006" />
      <line class="basepairs" id="61,72" x1="197.37399" y1="230.04285" x2="208.57938" y2="220.07091" />
    </g>
    <g transform="translate(-4.6, 4)" id="seq">
      <text class="nucleotide" x="5.772" y="8.609">m</text>
      <text class="nucleotide" x="11.255" y="22.571">7</text>
      <text class="nucleotide" x="20.531" y="34.364">G</text>
      <text class="nucleotide" x="6.161" y="30.062">G</text>
      <text class="nucleotide" x="-8.209" y="25.760">C</text>
      <text class="nucleotide" x="-22.579" y="21.458">C</text>
      <text class="nucleotide" x="-35.884" y="14.532">A</text>
      <text class="nucleotide" x="-47.650" y="5.228">C</text>
      <text class="nucleotide" x="-59.417" y="-4.075">C</text>
      <text class="nucleotide" x="-71.183" y="-13.379">A</text>
      <text class="nucleotide" x="-82.949" y="-22.682">T</text>
      <text class="nucleotide" x="-94.715" y="-31.986">G</text>
      <text class="nucleotide" x="-106.482" y="-41.290">G</text>
      <text class="nucleotide" x="-112.030" y="-56.722">G</text>
      <text class="nucleotide" x="-128.215" y="-59.366">C</text>
      <text class="nucleotide" x="-138.386" y="-46.502">C</text>
      <text class="nucleotide" x="-132.081" y="-31.363">A</text>
      <text class="nucleotide" x="-115.785" y="-29.523">C</text>
      <text class="nucleotide" x="-104.019" y="-20.220">C</text>
      <text class="nucleotide" x="-92.253" y="-10.916">A</text>
      <text class="nucleotide" x="-80.486" y="-1.613">T</text>
      <text class="nucleotide" x="-68.720" y="7.691">G</text>
      <text class="nucleotide" x="-56.954" y="16.994">G</text>
      <text class="nucleotide" x="-45.188" y="26.298">U</text>
      <text class="nucleotide" x="-60.187" y="26.403">U</text>
      <text class="nucleotide" x="-73.912" y="32.456">C</text>
      <text class="nucleotide" x="-84.103" y="43.462">U</text>
      <text class="nucleotide" x="-89.086" y="57.610">U</text>
      <text class="nucleotide" x="-88.040" y="72.574">C</text>
      <text class="nucleotide" x="-81.137" y="85.891">G</text>
      <text class="nucleotide" x="-69.513" y="95.372">C</text>
      <text class="nucleotide" x="-55.080" y="99.457">C</text>
      <text class="nucleotide" x="-40.212" y="97.474">G</text>
      <text class="nucleotide" x="-27.354" y="89.749">A</text>
      <text class="nucleotide" x="-18.621" y="77.553">C</text>
      <text class="nucleotide" x="-15.450" y="62.892">G</text>
      <text class="nucleotide" x="-18.363" y="48.177">U</text>
      <text class="nucleotide" x="-26.881" y="35.828">G</text>
      <text class="nucleotide" x="-12.511" y="40.130">G</text>
      <text class="nucleotide" x="1.859" y="44.432">C</text>
      <text class="nucleotide" x="16.228" y="48.734">C</text>
      <text class="nucleotide" x="18.941" y="52.814">G</text>
      <text class="nucleotide" x="23.478" y="55.671">C</text>
      <text class="nucleotide" x="29.244" y="56.503">C</text>
      <text class="nucleotide" x="39.850" y="67.109">U</text>
      <text class="nucleotide" x="50.457" y="77.716">A</text>
      <text class="nucleotide" x="61.064" y="88.323">C</text>
      <text class="nucleotide" x="71.670" y="98.929">U</text>
      <text class="nucleotide" x="82.277" y="109.536">U</text>
      <text class="nucleotide" x="82.382" y="124.025">C</text>
      <text class="nucleotide" x="92.627" y="134.271">C</text>
      <text class="nucleotide" x="107.117" y="134.376">C</text>
      <text class="nucleotide" x="117.568" y="145.135">C</text>
      <text class="nucleotide" x="127.861" y="156.046">G</text>
      <text class="nucleotide" x="131.704" y="171.393">A</text>
      <text class="nucleotide" x="146.066" y="175.341">C</text>
      <text class="nucleotide" x="156.359" y="186.252">C</text>
      <text class="nucleotide" x="166.653" y="197.162">A</text>
      <text class="nucleotide" x="176.947" y="208.073">C</text>
      <text class="nucleotide" x="187.240" y="218.984">C</text>
      <text class="nucleotide" x="197.374" y="230.043">C</text>
      <text class="nucleotide" x="192.467" y="244.597">C</text>
      <text class="nucleotide" x="195.510" y="259.651">C</text>
      <text class="nucleotide" x="205.684" y="271.157">C</text>
      <text class="nucleotide" x="220.253" y="276.018">C</text>
      <text class="nucleotide" x="235.298" y="272.928">C</text>
      <text class="nucleotide" x="246.772" y="262.717">C</text>
      <text class="nucleotide" x="251.588" y="248.133">C</text>
      <text class="nucleotide" x="248.450" y="233.098">U</text>
      <text class="nucleotide" x="238.204" y="221.657">U</text>
      <text class="nucleotide" x="223.605" y="216.887">C</text>
      <text class="nucleotide" x="208.579" y="220.071">G</text>
      <text class="nucleotide" x="206.451" y="212.871">U</text>
      <text class="nucleotide" x="198.151" y="208.690">G</text>
      <text class="nucleotide" x="187.857" y="197.779">G</text>
      <text class="nucleotide" x="177.564" y="186.869">U</text>
      <text class="nucleotide" x="167.270" y="175.958">G</text>
      <text class="nucleotide" x="156.976" y="165.048">G</text>
      <text class="nucleotide" x="153.870" y="150.480">G</text>
      <text class="nucleotide" x="138.772" y="145.752">C</text>
      <text class="nucleotide" x="128.478" y="134.842">G</text>
      <text class="nucleotide" x="126.141" y="127.706">U</text>
      <text class="nucleotide" x="117.723" y="123.769">G</text>
      <text class="nucleotide" x="117.618" y="109.280">U</text>
      <text class="nucleotide" x="107.373" y="99.034">A</text>
      <text class="nucleotide" x="92.883" y="98.929">A</text>
      <text class="nucleotide" x="82.277" y="88.323">A</text>
      <text class="nucleotide" x="71.670" y="77.716">G</text>
      <text class="nucleotide" x="61.064" y="67.109">U</text>
      <text class="nucleotide" x="50.457" y="56.503">A</text>
      <text class="nucleotide" x="39.850" y="45.896">G</text>
      <text class="nucleotide" x="54.629" y="48.463">U</text>
      <text class="nucleotide" x="69.521" y="46.665">A</text>
      <text class="nucleotide" x="83.264" y="40.654">G</text>
      <text class="nucleotide" x="94.693" y="30.939">U</text>
      <text class="nucleotide" x="102.840" y="18.345">A</text>
      <text class="nucleotide" x="107.015" y="3.937">G</text>
      <text class="nucleotide" x="106.864" y="-11.062">A</text>
      <text class="nucleotide" x="102.398" y="-25.382">A</text>
      <text class="nucleotide" x="93.998" y="-37.809">A</text>
      <text class="nucleotide" x="82.375" y="-47.291">A</text>
      <text class="nucleotide" x="68.513" y="-53.023">A</text>
      <text class="nucleotide" x="53.588" y="-54.520">A</text>
      <text class="nucleotide" x="38.864" y="-51.655">A</text>
      <text class="nucleotide" x="25.590" y="-44.671">A</text>
      <text class="nucleotide" x="14.889" y="-34.159">A</text>
      <text class="nucleotide" x="7.669" y="-21.011">A</text>
    </g>
  </g>
</svg>
