<?xml version="1.0" encoding="UTF-8" standalone="yes" ?>
<svg xmlns="http://www.w3.org/2000/svg" height="452" width="452">
  <script type="text/ecmascript">
    <![CDATA[
      var shown = 1;
      function click() {
        var seq = document.getElementById("seq");
        if (shown==1) {
          seq.setAttribute("style", "visibility: hidden");
          shown = 0;
        } else {
          seq.setAttribute("style", "visibility: visible");
          shown = 1;
        }
      }
    ]]>
  </script>
  <style type="text/css">
    <![CDATA[
      .nucleotide {
        font-family: SansSerif;
      }
      .backbone {
        stroke: grey;
        fill:   none;
        stroke-width: 1.5;
      }
      .basepairs {
        stroke: red;
        fill:   none;
        stroke-width: 2.5;
      }
    ]]>
  </style>

  <rect style="stroke: white; fill: white" height="452" x="0" y="0" width="452" onclick="click(evt)" />
  <g transform="scale(0.778788,0.778788) translate(164.157150,170.238113)">
    <polyline class="backbone" id="outline" points="
      7.017,-43.417
      -4.930,-45.441
      -17.020,-44.799
      -21.410,-59.143
      -25.799,-73.486
      -30.188,-87.829
      -22.552,-101.666
      -27.017,-116.827
      -40.933,-124.317
      -56.046,-119.692
      -63.388,-105.697
      -58.604,-90.634
      -44.532,-83.440
      -40.142,-69.097
      -35.753,-54.753
      -31.364,-40.410
      -35.797,-38.105
      -40.002,-35.407
      -43.944,-32.337
      -55.154,-42.305
      -66.364,-52.272
      -77.573,-62.239
      -88.783,-72.206
      -88.154,-87.831
      -97.757,-100.173
      -113.057,-103.404
      -126.830,-95.999
      -132.573,-81.454
      -127.575,-66.637
      -114.194,-58.544
      -98.750,-60.996
      -87.540,-51.029
      -76.331,-41.062
      -65.121,-31.095
      -53.911,-21.128
      -61.853,-2.952
      -62.825,16.886
      -56.683,35.802
      -44.208,51.325
      -27.013,61.421
      -7.327,64.759
      12.288,60.885
      19.686,73.934
      27.084,86.983
      34.482,100.031
      41.881,113.080
      49.279,126.128
      56.677,139.177
      53.307,153.793
      40.941,162.285
      28.576,170.776
      19.723,173.057
      16.086,179.498
      3.855,188.181
      -8.376,196.865
      -20.607,205.548
      -31.218,203.111
      -41.212,206.843
      -47.368,215.285
      -47.846,225.502
      -59.800,234.563
      -71.754,243.625
      -83.707,252.686
      -95.870,261.465
      -108.235,269.957
      -120.600,278.448
      -132.966,286.939
      -149.348,287.679
      -156.657,302.359
      -147.374,315.878
      -131.048,314.328
      -124.474,299.304
      -112.109,290.813
      -99.744,282.322
      -87.379,273.830
      -83.857,274.115
      -80.022,272.704
      -76.675,269.467
      -74.646,264.640
      -62.692,255.579
      -50.739,246.517
      -38.785,237.456
      -19.479,236.463
      -11.924,217.779
      0.307,209.096
      12.538,200.412
      24.769,191.729
      37.067,183.141
      49.433,174.650
      61.798,166.159
      75.576,172.088
      77.911,186.905
      80.246,201.722
      82.581,216.539
      84.916,231.357
      78.393,238.185
      75.786,247.118
      77.560,256.113
      83.192,263.172
      91.316,266.788
      94.343,281.479
      97.370,296.171
      100.397,310.862
      103.424,325.553
      106.451,340.245
      103.725,356.978
      119.050,364.230
      130.260,351.511
      121.142,337.218
      118.115,322.527
      115.089,307.835
      112.062,293.144
      109.035,278.452
      106.008,263.761
      114.201,244.823
      99.733,229.022
      97.398,214.204
      95.063,199.387
      92.728,184.570
      90.393,169.753
      112.873,163.675
      121.902,145.889
      136.865,144.835
      151.828,143.780
      166.791,142.726
      181.754,141.672
      196.716,140.618
      199.215,150.768
      203.430,160.405
      209.261,169.241
      216.555,177.006
      225.117,183.457
      234.711,188.388
      245.068,191.635
      255.892,193.082
      266.872,192.664
      277.686,190.372
      288.015,186.248
      297.549,180.393
      305.998,172.957
      313.102,164.141
      318.635,154.186
      322.417,143.372
      337.395,144.192
      352.372,145.012
      367.350,145.833
      382.327,146.653
      397.812,153.556
      408.732,140.587
      399.293,126.504
      383.147,131.675
      368.170,130.855
      353.192,130.035
      338.215,129.215
      323.237,128.395
      321.495,121.100
      336.084,117.615
      350.674,114.131
      361.567,103.818
      347.190,99.541
      332.600,103.025
      318.010,106.510
      316.268,99.215
      329.258,91.715
      342.249,84.215
      358.639,84.756
      367.072,70.691
      358.872,56.489
      342.475,56.760
      334.749,71.225
      321.758,78.725
      308.768,86.225
      290.908,71.939
      269.567,64.609
      247.311,64.897
      226.742,72.564
      210.196,86.520
      199.477,104.971
      195.662,125.655
      180.699,126.709
      165.737,127.763
      150.774,128.818
      135.811,129.872
      120.848,130.926
      98.049,112.958
      69.726,131.779
      62.327,118.730
      54.929,105.682
      47.531,92.633
      40.133,79.584
      32.734,66.536
      25.336,53.487
      34.141,45.028
      40.874,34.852
      45.211,23.458
      46.946,11.400
      45.998,-0.736
      42.418,-12.361
      36.382,-22.910
      28.189,-31.875
    " />
    <g id="pairs">
      <line class="basepairs" id="3,16" x1="-17.02037" y1="-44.79910" x2="-31.36380" y2="-40.40979" />
      <line class="basepairs" id="4,15" x1="-21.40969" y1="-59.14252" x2="-35.75311" y2="-54.75320" />
      <line class="basepairs" id="5,14" x1="-25.79900" y1="-73.48596" x2="-40.14243" y2="-69.09665" />
      <line class="basepairs" id="6,13" x1="-30.18831" y1="-87.82938" x2="-44.53174" y2="-83.44006" />
      <line class="basepairs" id="19,35" x1="-43.94419" y1="-32.33746" x2="-53.91126" y2="-21.12778" />
      <line class="basepairs" id="20,34" x1="-55.15390" y1="-42.30453" x2="-65.12097" y2="-31.09485" />
      <line class="basepairs" id="21,33" x1="-66.36360" y1="-52.27161" x2="-76.33067" y2="-41.06192" />
      <line class="basepairs" id="22,32" x1="-77.57330" y1="-62.23868" x2="-87.54037" y2="-51.02899" />
      <line class="basepairs" id="23,31" x1="-88.78301" y1="-72.20578" x2="-98.75008" y2="-60.99606" />
      <line class="basepairs" id="42,192" x1="12.28759" y1="60.88547" x2="25.33618" y2="53.48721" />
      <line class="basepairs" id="43,191" x1="19.68584" y1="73.93407" x2="32.73443" y2="66.53581" />
      <line class="basepairs" id="44,190" x1="27.08409" y1="86.98265" x2="40.13269" y2="79.58440" />
      <line class="basepairs" id="45,189" x1="34.48235" y1="100.03125" x2="47.53094" y2="92.63300" />
      <line class="basepairs" id="46,188" x1="41.88060" y1="113.07985" x2="54.92920" y2="105.68159" />
      <line class="basepairs" id="47,187" x1="49.27885" y1="126.12844" x2="62.32745" y2="118.73019" />
      <line class="basepairs" id="48,186" x1="56.67710" y1="139.17703" x2="69.72570" y2="131.77878" />
      <line class="basepairs" id="49,90" x1="53.30665" y1="153.79346" x2="61.79791" y2="166.15868" />
      <line class="basepairs" id="50,89" x1="40.94144" y1="162.28473" x2="49.43270" y2="174.64993" />
      <line class="basepairs" id="51,88" x1="28.57622" y1="170.77600" x2="37.06749" y2="183.14120" />
      <line class="basepairs" id="53,87" x1="16.08553" y1="179.49785" x2="24.76901" y2="191.72884" />
      <line class="basepairs" id="54,86" x1="3.85454" y1="188.18134" x2="12.53802" y2="200.41232" />
      <line class="basepairs" id="55,85" x1="-8.37645" y1="196.86482" x2="0.30703" y2="209.09581" />
      <line class="basepairs" id="56,84" x1="-20.60744" y1="205.54831" x2="-11.92396" y2="217.77930" />
      <line class="basepairs" id="60,82" x1="-47.84646" y1="225.50191" x2="-38.78495" y2="237.45552" />
      <line class="basepairs" id="61,81" x1="-59.80008" y1="234.56342" x2="-50.73856" y2="246.51703" />
      <line class="basepairs" id="62,80" x1="-71.75369" y1="243.62494" x2="-62.69218" y2="255.57855" />
      <line class="basepairs" id="63,79" x1="-83.70731" y1="252.68645" x2="-74.64580" y2="264.64008" />
      <line class="basepairs" id="64,75" x1="-95.87006" y1="261.46524" x2="-87.37881" y2="273.83044" />
      <line class="basepairs" id="65,74" x1="-108.23528" y1="269.95651" x2="-99.74402" y2="282.32172" />
      <line class="basepairs" id="66,73" x1="-120.60049" y1="278.44778" x2="-112.10923" y2="290.81299" />
      <line class="basepairs" id="67,72" x1="-132.96570" y1="286.93903" x2="-124.47444" y2="299.30426" />
      <line class="basepairs" id="91,120" x1="75.57630" y1="172.08792" x2="90.39346" y2="169.75298" />
      <line class="basepairs" id="92,119" x1="77.91124" y1="186.90506" x2="92.72839" y2="184.57013" />
      <line class="basepairs" id="93,118" x1="80.24618" y1="201.72223" x2="95.06334" y2="199.38728" />
      <line class="basepairs" id="94,117" x1="82.58112" y1="216.53938" x2="97.39828" y2="214.20444" />
      <line class="basepairs" id="95,116" x1="84.91605" y1="231.35654" x2="99.73322" y2="229.02159" />
      <line class="basepairs" id="100,114" x1="91.31646" y1="266.78769" x2="106.00788" y2="263.76080" />
      <line class="basepairs" id="101,113" x1="94.34335" y1="281.47913" x2="109.03477" y2="278.45224" />
      <line class="basepairs" id="102,112" x1="97.37023" y1="296.17056" x2="112.06165" y2="293.14368" />
      <line class="basepairs" id="103,111" x1="100.39712" y1="310.86197" x2="115.08854" y2="307.83508" />
      <line class="basepairs" id="104,110" x1="103.42400" y1="325.55341" x2="118.11543" y2="322.52652" />
      <line class="basepairs" id="105,109" x1="106.45088" y1="340.24481" x2="121.14231" y2="337.21796" />
      <line class="basepairs" id="122,184" x1="121.90193" y1="145.88873" x2="120.84779" y2="130.92583" />
      <line class="basepairs" id="123,183" x1="136.86484" y1="144.83459" x2="135.81070" y2="129.87167" />
      <line class="basepairs" id="124,182" x1="151.82776" y1="143.78046" x2="150.77362" y2="128.81754" />
      <line class="basepairs" id="125,181" x1="166.79066" y1="142.72632" x2="165.73653" y2="127.76340" />
      <line class="basepairs" id="126,180" x1="181.75359" y1="141.67216" x2="180.69945" y2="126.70925" />
      <line class="basepairs" id="127,179" x1="196.71649" y1="140.61801" x2="195.66235" y2="125.65511" />
      <line class="basepairs" id="143,155" x1="322.41693" y1="143.37210" x2="323.23709" y2="128.39453" />
      <line class="basepairs" id="144,154" x1="337.39450" y1="144.19226" x2="338.21463" y2="129.21469" />
      <line class="basepairs" id="145,153" x1="352.37204" y1="145.01242" x2="353.19220" y2="130.03485" />
      <line class="basepairs" id="146,152" x1="367.34961" y1="145.83257" x2="368.16977" y2="130.85501" />
      <line class="basepairs" id="147,151" x1="382.32718" y1="146.65273" x2="383.14734" y2="131.67517" />
      <line class="basepairs" id="163,172" x1="316.26791" y1="99.21526" x2="308.76791" y2="86.22487" />
      <line class="basepairs" id="164,171" x1="329.25830" y1="91.71526" x2="321.75830" y2="78.72487" />
      <line class="basepairs" id="165,170" x1="342.24869" y1="84.21526" x2="334.74869" y2="71.22487" />
    </g>
    <g transform="translate(-4.6, 4)" id="seq">
      <text class="nucleotide" x="7.017" y="-43.417">m</text>
      <text class="nucleotide" x="-4.930" y="-45.441">7</text>
      <text class="nucleotide" x="-17.020" y="-44.799">G</text>
      <text class="nucleotide" x="-21.410" y="-59.143">G</text>
      <text class="nucleotide" x="-25.799" y="-73.486">C</text>
      <text class="nucleotide" x="-30.188" y="-87.829">C</text>
      <text class="nucleotide" x="-22.552" y="-101.666">A</text>
      <text class="nucleotide" x="-27.017" y="-116.827">C</text>
      <text class="nucleotide" x="-40.933" y="-124.317">C</text>
      <text class="nucleotide" x="-56.046" y="-119.692">A</text>
      <text class="nucleotide" x="-63.388" y="-105.697">T</text>
      <text class="nucleotide" x="-58.604" y="-90.634">G</text>
      <text class="nucleotide" x="-44.532" y="-83.440">G</text>
      <text class="nucleotide" x="-40.142" y="-69.097">G</text>
      <text class="nucleotide" x="-35.753" y="-54.753">C</text>
      <text class="nucleotide" x="-31.364" y="-40.410">C</text>
      <text class="nucleotide" x="-35.797" y="-38.105">A</text>
      <text class="nucleotide" x="-40.002" y="-35.407">C</text>
      <text class="nucleotide" x="-43.944" y="-32.337">C</text>
      <text class="nucleotide" x="-55.154" y="-42.305">A</text>
      <text class="nucleotide" x="-66.364" y="-52.272">T</text>
      <text class="nucleotide" x="-77.573" y="-62.239">G</text>
      <text class="nucleotide" x="-88.783" y="-72.206">G</text>
      <text class="nucleotide" x="-88.154" y="-87.831">A</text>
      <text class="nucleotide" x="-97.757" y="-100.173">U</text>
      <text class="nucleotide" x="-113.057" y="-103.404">G</text>
      <text class="nucleotide" x="-126.830" y="-95.999">U</text>
      <text class="nucleotide" x="-132.573" y="-81.454">A</text>
      <text class="nucleotide" x="-127.575" y="-66.637">C</text>
      <text class="nucleotide" x="-114.194" y="-58.544">C</text>
      <text class="nucleotide" x="-98.750" y="-60.996">C</text>
      <text class="nucleotide" x="-87.540" y="-51.029">C</text>
      <text class="nucleotide" x="-76.331" y="-41.062">A</text>
      <text class="nucleotide" x="-65.121" y="-31.095">U</text>
      <text class="nucleotide" x="-53.911" y="-21.128">G</text>
      <text class="nucleotide" x="-61.853" y="-2.952">C</text>
      <text class="nucleotide" x="-62.825" y="16.886">A</text>
      <text class="nucleotide" x="-56.683" y="35.802">C</text>
      <text class="nucleotide" x="-44.208" y="51.325">U</text>
      <text class="nucleotide" x="-27.013" y="61.421">U</text>
      <text class="nucleotide" x="-7.327" y="64.759">C</text>
      <text class="nucleotide" x="12.288" y="60.885">U</text>
      <text class="nucleotide" x="19.686" y="73.934">U</text>
      <text class="nucleotide" x="27.084" y="86.983">C</text>
      <text class="nucleotide" x="34.482" y="100.031">U</text>
      <text class="nucleotide" x="41.881" y="113.080">A</text>
      <text class="nucleotide" x="49.279" y="126.128">C</text>
      <text class="nucleotide" x="56.677" y="139.177">U</text>
      <text class="nucleotide" x="53.307" y="153.793">G</text>
      <text class="nucleotide" x="40.941" y="162.285">G</text>
      <text class="nucleotide" x="28.576" y="170.776">A</text>
      <text class="nucleotide" x="19.723" y="173.057">U</text>
      <text class="nucleotide" x="16.086" y="179.498">G</text>
      <text class="nucleotide" x="3.855" y="188.181">G</text>
      <text class="nucleotide" x="-8.376" y="196.865">C</text>
      <text class="nucleotide" x="-20.607" y="205.548">C</text>
      <text class="nucleotide" x="-31.218" y="203.111">U</text>
      <text class="nucleotide" x="-41.212" y="206.843">U</text>
      <text class="nucleotide" x="-47.368" y="215.285">C</text>
      <text class="nucleotide" x="-47.846" y="225.502">U</text>
      <text class="nucleotide" x="-59.800" y="234.563">A</text>
      <text class="nucleotide" x="-71.754" y="243.625">C</text>
      <text class="nucleotide" x="-83.707" y="252.686">U</text>
      <text class="nucleotide" x="-95.870" y="261.465">U</text>
      <text class="nucleotide" x="-108.235" y="269.957">C</text>
      <text class="nucleotide" x="-120.600" y="278.448">G</text>
      <text class="nucleotide" x="-132.966" y="286.939">C</text>
      <text class="nucleotide" x="-149.348" y="287.679">C</text>
      <text class="nucleotide" x="-156.657" y="302.359">U</text>
      <text class="nucleotide" x="-147.374" y="315.878">U</text>
      <text class="nucleotide" x="-131.048" y="314.328">C</text>
      <text class="nucleotide" x="-124.474" y="299.304">G</text>
      <text class="nucleotide" x="-112.109" y="290.813">U</text>
      <text class="nucleotide" x="-99.744" y="282.322">G</text>
      <text class="nucleotide" x="-87.379" y="273.830">A</text>
      <text class="nucleotide" x="-83.857" y="274.115">C</text>
      <text class="nucleotide" x="-80.022" y="272.704">C</text>
      <text class="nucleotide" x="-76.675" y="269.467">A</text>
      <text class="nucleotide" x="-74.646" y="264.640">A</text>
      <text class="nucleotide" x="-62.692" y="255.579">G</text>
      <text class="nucleotide" x="-50.739" y="246.517">U</text>
      <text class="nucleotide" x="-38.785" y="237.456">A</text>
      <text class="nucleotide" x="-19.479" y="236.463">C</text>
      <text class="nucleotide" x="-11.924" y="217.779">G</text>
      <text class="nucleotide" x="0.307" y="209.096">G</text>
      <text class="nucleotide" x="12.538" y="200.412">C</text>
      <text class="nucleotide" x="24.769" y="191.729">U</text>
      <text class="nucleotide" x="37.067" y="183.141">U</text>
      <text class="nucleotide" x="49.433" y="174.650">C</text>
      <text class="nucleotide" x="61.798" y="166.159">C</text>
      <text class="nucleotide" x="75.576" y="172.088">C</text>
      <text class="nucleotide" x="77.911" y="186.905">C</text>
      <text class="nucleotide" x="80.246" y="201.722">G</text>
      <text class="nucleotide" x="82.581" y="216.539">U</text>
      <text class="nucleotide" x="84.916" y="231.357">G</text>
      <text class="nucleotide" x="78.393" y="238.185">U</text>
      <text class="nucleotide" x="75.786" y="247.118">U</text>
      <text class="nucleotide" x="77.560" y="256.113">C</text>
      <text class="nucleotide" x="83.192" y="263.172">C</text>
      <text class="nucleotide" x="91.316" y="266.788">C</text>
      <text class="nucleotide" x="94.343" y="281.479">C</text>
      <text class="nucleotide" x="97.370" y="296.171">U</text>
      <text class="nucleotide" x="100.397" y="310.862">U</text>
      <text class="nucleotide" x="103.424" y="325.553">C</text>
      <text class="nucleotide" x="106.451" y="340.245">U</text>
      <text class="nucleotide" x="103.725" y="356.978">A</text>
      <text class="nucleotide" x="119.050" y="364.230">C</text>
      <text class="nucleotide" x="130.260" y="351.511">C</text>
      <text class="nucleotide" x="121.142" y="337.218">A</text>
      <text class="nucleotide" x="118.115" y="322.527">G</text>
      <text class="nucleotide" x="115.089" y="307.835">A</text>
      <text class="nucleotide" x="112.062" y="293.144">A</text>
      <text class="nucleotide" x="109.035" y="278.452">G</text>
      <text class="nucleotide" x="106.008" y="263.761">G</text>
      <text class="nucleotide" x="114.201" y="244.823">C</text>
      <text class="nucleotide" x="99.733" y="229.022">C</text>
      <text class="nucleotide" x="97.398" y="214.204">A</text>
      <text class="nucleotide" x="95.063" y="199.387">U</text>
      <text class="nucleotide" x="92.728" y="184.570">G</text>
      <text class="nucleotide" x="90.393" y="169.753">G</text>
      <text class="nucleotide" x="112.873" y="163.675">C</text>
      <text class="nucleotide" x="121.902" y="145.889">C</text>
      <text class="nucleotide" x="136.865" y="144.835">U</text>
      <text class="nucleotide" x="151.828" y="143.780">A</text>
      <text class="nucleotide" x="166.791" y="142.726">C</text>
      <text class="nucleotide" x="181.754" y="141.672">U</text>
      <text class="nucleotide" x="196.716" y="140.618">U</text>
      <text class="nucleotide" x="199.215" y="150.768">C</text>
      <text class="nucleotide" x="203.430" y="160.405">U</text>
      <text class="nucleotide" x="209.261" y="169.241">A</text>
      <text class="nucleotide" x="216.555" y="177.006">C</text>
      <text class="nucleotide" x="225.117" y="183.457">A</text>
      <text class="nucleotide" x="234.711" y="188.388">C</text>
      <text class="nucleotide" x="245.068" y="191.635">C</text>
      <text class="nucleotide" x="255.892" y="193.082">U</text>
      <text class="nucleotide" x="266.872" y="192.664">U</text>
      <text class="nucleotide" x="277.686" y="190.372">C</text>
      <text class="nucleotide" x="288.015" y="186.248">C</text>
      <text class="nucleotide" x="297.549" y="180.393">C</text>
      <text class="nucleotide" x="305.998" y="172.957">C</text>
      <text class="nucleotide" x="313.102" y="164.141">G</text>
      <text class="nucleotide" x="318.635" y="154.186">A</text>
      <text class="nucleotide" x="322.417" y="143.372">C</text>
      <text class="nucleotide" x="337.395" y="144.192">A</text>
      <text class="nucleotide" x="352.372" y="145.012">C</text>
      <text class="nucleotide" x="367.350" y="145.833">C</text>
      <text class="nucleotide" x="382.327" y="146.653">A</text>
      <text class="nucleotide" x="397.812" y="153.556">C</text>
      <text class="nucleotide" x="408.732" y="140.587">C</text>
      <text class="nucleotide" x="399.293" y="126.504">G</text>
      <text class="nucleotide" x="383.147" y="131.675">U</text>
      <text class="nucleotide" x="368.170" y="130.855">G</text>
      <text class="nucleotide" x="353.192" y="130.035">G</text>
      <text class="nucleotide" x="338.215" y="129.215">U</text>
      <text class="nucleotide" x="323.237" y="128.395">G</text>
      <text class="nucleotide" x="321.495" y="121.100">C</text>
      <text class="nucleotide" x="336.084" y="117.615">C</text>
      <text class="nucleotide" x="350.674" y="114.131">C</text>
      <text class="nucleotide" x="361.567" y="103.818">C</text>
      <text class="nucleotide" x="347.190" y="99.541">C</text>
      <text class="nucleotide" x="332.600" y="103.025">C</text>
      <text class="nucleotide" x="318.010" y="106.510">C</text>
      <text class="nucleotide" x="316.268" y="99.215">C</text>
      <text class="nucleotide" x="329.258" y="91.715">C</text>
      <text class="nucleotide" x="342.249" y="84.215">G</text>
      <text class="nucleotide" x="358.639" y="84.756">A</text>
      <text class="nucleotide" x="367.072" y="70.691">G</text>
      <text class="nucleotide" x="358.872" y="56.489">C</text>
      <text class="nucleotide" x="342.475" y="56.760">C</text>
      <text class="nucleotide" x="334.749" y="71.225">C</text>
      <text class="nucleotide" x="321.758" y="78.725">G</text>
      <text class="nucleotide" x="308.768" y="86.225">G</text>
      <text class="nucleotide" x="290.908" y="71.939">C</text>
      <text class="nucleotide" x="269.567" y="64.609">C</text>
      <text class="nucleotide" x="247.311" y="64.897">C</text>
      <text class="nucleotide" x="226.742" y="72.564">C</text>
      <text class="nucleotide" x="210.196" y="86.520">U</text>
      <text class="nucleotide" x="199.477" y="104.971">A</text>
      <text class="nucleotide" x="195.662" y="125.655">A</text>
      <text class="nucleotide" x="180.699" y="126.709">A</text>
      <text class="nucleotide" x="165.737" y="127.763">G</text>
      <text class="nucleotide" x="150.774" y="128.818">U</text>
      <text class="nucleotide" x="135.811" y="129.872">A</text>
      <text class="nucleotide" x="120.848" y="130.926">G</text>
      <text class="nucleotide" x="98.049" y="112.958">U</text>
      <text class="nucleotide" x="69.726" y="131.779">A</text>
      <text class="nucleotide" x="62.327" y="118.730">G</text>
      <text class="nucleotide" x="54.929" y="105.682">U</text>
      <text class="nucleotide" x="47.531" y="92.633">A</text>
      <text class="nucleotide" x="40.133" y="79.584">G</text>
      <text class="nucleotide" x="32.734" y="66.536">A</text>
      <text class="nucleotide" x="25.336" y="53.487">A</text>
      <text class="nucleotide" x="34.141" y="45.028">A</text>
      <text class="nucleotide" x="40.874" y="34.852">A</text>
      <text class="nucleotide" x="45.211" y="23.458">A</text>
      <text class="nucleotide" x="46.946" y="11.400">A</text>
      <text class="nucleotide" x="45.998" y="-0.736">A</text>
      <text class="nucleotide" x="42.418" y="-12.361">A</text>
      <text class="nucleotide" x="36.382" y="-22.910">A</text>
      <text class="nucleotide" x="28.189" y="-31.875">A</text>
    </g>
  </g>
</svg>
