<?xml version="1.0" encoding="UTF-8" standalone="yes" ?>
<svg xmlns="http://www.w3.org/2000/svg" height="452" width="452">
  <script type="text/ecmascript">
    <![CDATA[
      var shown = 1;
      function click() {
        var seq = document.getElementById("seq");
        if (shown==1) {
          seq.setAttribute("style", "visibility: hidden");
          shown = 0;
        } else {
          seq.setAttribute("style", "visibility: visible");
          shown = 1;
        }
      }
    ]]>
  </script>
  <style type="text/css">
    <![CDATA[
      .nucleotide {
        font-family: SansSerif;
      }
      .backbone {
        stroke: grey;
        fill:   none;
        stroke-width: 1.5;
      }
      .basepairs {
        stroke: red;
        fill:   none;
        stroke-width: 2.5;
      }
    ]]>
  </style>

  <rect style="stroke: white; fill: white" height="452" x="0" y="0" width="452" onclick="click(evt)" />
  <g transform="scale(0.513601,0.513601) translate(283.956635,188.277832)">
    <polyline class="backbone" id="outline" points="
      78.887,336.180
      85.243,349.766
      92.355,362.974
      79.726,354.880
      67.097,346.786
      54.468,338.693
      41.839,330.599
      29.210,322.505
      27.506,311.776
      20.331,303.915
      10.227,301.348
      0.584,304.689
      -12.265,296.949
      -25.114,289.210
      -37.963,281.470
      -50.812,273.731
      -63.661,265.991
      -76.457,258.163
      -89.197,250.245
      -96.834,236.390
      -111.728,236.244
      -124.468,228.326
      -137.209,220.409
      -149.949,212.492
      -161.667,203.128
      -172.200,192.448
      -179.017,176.924
      -195.820,179.178
      -198.307,195.948
      -182.880,202.980
      -172.347,213.660
      -176.611,219.830
      -191.562,218.615
      -185.139,232.171
      -189.402,238.341
      -203.117,232.265
      -216.831,226.189
      -230.546,220.114
      -244.260,214.038
      -253.482,200.477
      -269.814,201.952
      -276.457,216.946
      -266.576,230.034
      -250.336,227.753
      -236.621,233.828
      -222.907,239.904
      -209.193,245.979
      -195.478,252.055
      -157.866,225.232
      -145.126,233.149
      -132.386,241.067
      -119.645,248.984
      -112.919,262.273
      -97.114,262.986
      -84.374,270.903
      -80.356,277.096
      -71.401,278.840
      -58.552,286.580
      -45.703,294.319
      -32.853,302.059
      -20.004,309.798
      -7.155,317.538
      0.951,335.100
      21.116,335.134
      33.746,343.228
      46.375,351.322
      59.004,359.415
      71.633,367.509
      84.262,375.603
      85.198,383.044
      73.244,392.106
      87.069,397.927
      88.005,405.368
      77.773,416.337
      67.542,427.306
      52.471,432.119
      49.447,446.704
      39.215,457.672
      28.984,468.641
      18.676,479.539
      8.293,490.364
      -7.061,488.123
      -20.785,495.366
      -27.600,509.306
      -24.887,524.584
      -13.688,535.325
      1.690,537.399
      15.334,530.008
      21.997,515.995
      19.118,500.747
      29.502,489.922
      36.393,487.273
      39.953,478.873
      50.184,467.904
      60.416,456.935
      74.755,452.906
      78.511,437.537
      88.742,426.569
      98.974,415.600
      106.008,418.203
      100.801,432.271
      95.595,446.338
      109.663,451.544
      114.869,437.477
      120.075,423.409
      127.109,426.013
      127.734,441.000
      128.359,455.987
      128.985,470.974
      129.610,485.961
      130.236,500.947
      119.353,512.408
      119.845,528.204
      131.419,538.966
      147.210,538.307
      157.848,526.619
      157.022,510.836
      145.223,500.322
      144.597,485.335
      143.972,470.348
      143.346,455.361
      142.721,440.374
      142.096,425.387
      153.382,435.267
      165.208,444.495
      177.536,453.040
      190.326,460.877
      203.538,467.980
      217.129,474.327
      231.056,479.897
      245.276,484.672
      259.742,488.638
      274.409,491.781
      289.230,494.093
      304.158,495.564
      319.145,496.192
      334.143,495.973
      349.105,494.908
      363.983,493.002
      378.731,490.259
      393.299,486.688
      407.644,482.302
      421.718,477.114
      435.477,471.140
      448.877,464.399
      461.876,456.914
      474.432,448.707
      486.505,439.805
      498.056,430.237
      509.050,420.032
      519.451,409.223
      529.225,397.845
      538.342,385.933
      546.772,373.527
      554.490,360.664
      561.470,347.387
      567.689,333.737
      573.129,319.759
      577.772,305.495
      581.603,290.993
      584.610,276.297
      586.783,261.455
      588.116,246.515
      588.604,231.523
      588.245,216.527
      587.041,201.575
      584.996,186.715
      582.116,171.994
      578.411,157.459
      573.891,143.156
      568.572,129.131
      562.470,115.428
      555.605,102.091
      547.999,89.163
      539.676,76.684
      530.662,64.695
      520.986,53.232
      510.679,42.334
      499.774,32.035
      488.305,22.367
      476.309,13.361
      463.825,5.047
      450.891,-2.551
      437.550,-9.407
      423.843,-15.499
      409.814,-20.809
      395.508,-25.318
      380.970,-29.014
      366.247,-31.884
      351.386,-33.919
      336.434,-35.113
      321.438,-35.461
      306.446,-34.963
      291.506,-33.620
      276.666,-31.437
      261.972,-28.420
      247.472,-24.579
      233.212,-19.926
      219.237,-14.477
      205.592,-8.248
      192.319,-1.259
      179.462,6.467
      167.061,14.906
      155.156,24.031
      143.785,33.814
      132.983,44.221
      122.785,55.222
      113.225,66.780
      104.331,78.859
      96.133,91.421
      88.656,104.424
      81.925,117.829
      75.960,131.592
      70.782,145.670
      66.405,160.017
      62.845,174.589
      60.112,189.338
      58.216,204.217
      57.161,219.180
      56.953,234.179
      57.590,249.165
      59.072,264.092
      61.394,278.911
      64.547,293.576
      68.523,308.039
    " />
    <g id="pairs">
      <line class="basepairs" id="3,69" x1="92.35536" y1="362.97360" x2="84.26170" y2="375.60263" />
      <line class="basepairs" id="4,68" x1="79.72632" y1="354.87994" x2="71.63266" y2="367.50897" />
      <line class="basepairs" id="5,67" x1="67.09727" y1="346.78629" x2="59.00362" y2="359.41531" />
      <line class="basepairs" id="6,66" x1="54.46824" y1="338.69263" x2="46.37458" y2="351.32166" />
      <line class="basepairs" id="7,65" x1="41.83920" y1="330.59894" x2="33.74554" y2="343.22800" />
      <line class="basepairs" id="8,64" x1="29.21015" y1="322.50531" x2="21.11650" y2="335.13434" />
      <line class="basepairs" id="12,62" x1="0.58429" y1="304.68860" x2="-7.15518" y2="317.53778" />
      <line class="basepairs" id="13,61" x1="-12.26486" y1="296.94916" x2="-20.00433" y2="309.79828" />
      <line class="basepairs" id="14,60" x1="-25.11401" y1="289.20969" x2="-32.85348" y2="302.05884" />
      <line class="basepairs" id="15,59" x1="-37.96316" y1="281.47021" x2="-45.70263" y2="294.31937" />
      <line class="basepairs" id="16,58" x1="-50.81231" y1="273.73074" x2="-58.55177" y2="286.57990" />
      <line class="basepairs" id="17,57" x1="-63.66146" y1="265.99127" x2="-71.40092" y2="278.84042" />
      <line class="basepairs" id="18,55" x1="-76.45650" y1="258.16269" x2="-84.37383" y2="270.90302" />
      <line class="basepairs" id="19,54" x1="-89.19683" y1="250.24536" x2="-97.11416" y2="262.98569" />
      <line class="basepairs" id="21,52" x1="-111.72805" y1="236.24359" x2="-119.64538" y2="248.98392" />
      <line class="basepairs" id="22,51" x1="-124.46838" y1="228.32626" x2="-132.38570" y2="241.06659" />
      <line class="basepairs" id="23,50" x1="-137.20869" y1="220.40894" x2="-145.12602" y2="233.14926" />
      <line class="basepairs" id="24,49" x1="-149.94902" y1="212.49161" x2="-157.86635" y2="225.23193" />
      <line class="basepairs" id="25,31" x1="-161.66721" y1="203.12762" x2="-172.34727" y2="213.66025" />
      <line class="basepairs" id="26,30" x1="-172.19983" y1="192.44757" x2="-182.87990" y2="202.98019" />
      <line class="basepairs" id="35,48" x1="-189.40242" y1="238.34067" x2="-195.47806" y2="252.05511" />
      <line class="basepairs" id="36,47" x1="-203.11688" y1="232.26501" x2="-209.19252" y2="245.97949" />
      <line class="basepairs" id="37,46" x1="-216.83134" y1="226.18936" x2="-222.90698" y2="239.90384" />
      <line class="basepairs" id="38,45" x1="-230.54581" y1="220.11374" x2="-236.62146" y2="233.82819" />
      <line class="basepairs" id="39,44" x1="-244.26028" y1="214.03809" x2="-250.33592" y2="227.75256" />
      <line class="basepairs" id="73,99" x1="88.00515" y1="405.36816" x2="98.97387" y2="415.59985" />
      <line class="basepairs" id="74,98" x1="77.77348" y1="416.33688" x2="88.74220" y2="426.56854" />
      <line class="basepairs" id="75,97" x1="67.54181" y1="427.30560" x2="78.51054" y2="437.53729" />
      <line class="basepairs" id="77,95" x1="49.44714" y1="446.70377" x2="60.41586" y2="456.93542" />
      <line class="basepairs" id="78,94" x1="39.21547" y1="457.67249" x2="50.18419" y2="467.90417" />
      <line class="basepairs" id="79,93" x1="28.98380" y1="468.64120" x2="39.95252" y2="478.87289" />
      <line class="basepairs" id="80,91" x1="18.67614" y1="479.53857" x2="29.50158" y2="489.92172" />
      <line class="basepairs" id="81,90" x1="8.29299" y1="490.36401" x2="19.11843" y2="500.74716" />
      <line class="basepairs" id="106,123" x1="127.10877" y1="426.01270" x2="142.09573" y2="425.38733" />
      <line class="basepairs" id="107,122" x1="127.73413" y1="440.99963" x2="142.72108" y2="440.37430" />
      <line class="basepairs" id="108,121" x1="128.35948" y1="455.98660" x2="143.34645" y2="455.36124" />
      <line class="basepairs" id="109,120" x1="128.98485" y1="470.97357" x2="143.97180" y2="470.34821" />
      <line class="basepairs" id="110,119" x1="129.61020" y1="485.96051" x2="144.59715" y2="485.33517" />
      <line class="basepairs" id="111,118" x1="130.23555" y1="500.94748" x2="145.22252" y2="500.32211" />
    </g>
    <g transform="translate(-4.6, 4)" id="seq">
      <text class="nucleotide" x="78.887" y="336.180">m</text>
      <text class="nucleotide" x="85.243" y="349.766">7</text>
      <text class="nucleotide" x="92.355" y="362.974">G</text>
      <text class="nucleotide" x="79.726" y="354.880">G</text>
      <text class="nucleotide" x="67.097" y="346.786">G</text>
      <text class="nucleotide" x="54.468" y="338.693">G</text>
      <text class="nucleotide" x="41.839" y="330.599">A</text>
      <text class="nucleotide" x="29.210" y="322.505">A</text>
      <text class="nucleotide" x="27.506" y="311.776">A</text>
      <text class="nucleotide" x="20.331" y="303.915">U</text>
      <text class="nucleotide" x="10.227" y="301.348">U</text>
      <text class="nucleotide" x="0.584" y="304.689">U</text>
      <text class="nucleotide" x="-12.265" y="296.949">C</text>
      <text class="nucleotide" x="-25.114" y="289.210">U</text>
      <text class="nucleotide" x="-37.963" y="281.470">U</text>
      <text class="nucleotide" x="-50.812" y="273.731">A</text>
      <text class="nucleotide" x="-63.661" y="265.991">U</text>
      <text class="nucleotide" x="-76.457" y="258.163">U</text>
      <text class="nucleotide" x="-89.197" y="250.245">G</text>
      <text class="nucleotide" x="-96.834" y="236.390">C</text>
      <text class="nucleotide" x="-111.728" y="236.244">A</text>
      <text class="nucleotide" x="-124.468" y="228.326">G</text>
      <text class="nucleotide" x="-137.209" y="220.409">C</text>
      <text class="nucleotide" x="-149.949" y="212.492">C</text>
      <text class="nucleotide" x="-161.667" y="203.128">G</text>
      <text class="nucleotide" x="-172.200" y="192.448">C</text>
      <text class="nucleotide" x="-179.017" y="176.924">C</text>
      <text class="nucleotide" x="-195.820" y="179.178">A</text>
      <text class="nucleotide" x="-198.307" y="195.948">C</text>
      <text class="nucleotide" x="-182.880" y="202.980">G</text>
      <text class="nucleotide" x="-172.347" y="213.660">C</text>
      <text class="nucleotide" x="-176.611" y="219.830">C</text>
      <text class="nucleotide" x="-191.562" y="218.615">A</text>
      <text class="nucleotide" x="-185.139" y="232.171">C</text>
      <text class="nucleotide" x="-189.402" y="238.341">C</text>
      <text class="nucleotide" x="-203.117" y="232.265">A</text>
      <text class="nucleotide" x="-216.831" y="226.189">U</text>
      <text class="nucleotide" x="-230.546" y="220.114">G</text>
      <text class="nucleotide" x="-244.260" y="214.038">G</text>
      <text class="nucleotide" x="-253.482" y="200.477">U</text>
      <text class="nucleotide" x="-269.814" y="201.952">U</text>
      <text class="nucleotide" x="-276.457" y="216.946">C</text>
      <text class="nucleotide" x="-266.576" y="230.034">U</text>
      <text class="nucleotide" x="-250.336" y="227.753">U</text>
      <text class="nucleotide" x="-236.621" y="233.828">C</text>
      <text class="nucleotide" x="-222.907" y="239.904">A</text>
      <text class="nucleotide" x="-209.193" y="245.979">U</text>
      <text class="nucleotide" x="-195.478" y="252.055">G</text>
      <text class="nucleotide" x="-157.866" y="225.232">G</text>
      <text class="nucleotide" x="-145.126" y="233.149">G</text>
      <text class="nucleotide" x="-132.386" y="241.067">C</text>
      <text class="nucleotide" x="-119.645" y="248.984">U</text>
      <text class="nucleotide" x="-112.919" y="262.273">U</text>
      <text class="nucleotide" x="-97.114" y="262.986">C</text>
      <text class="nucleotide" x="-84.374" y="270.903">A</text>
      <text class="nucleotide" x="-80.356" y="277.096">U</text>
      <text class="nucleotide" x="-71.401" y="278.840">G</text>
      <text class="nucleotide" x="-58.552" y="286.580">U</text>
      <text class="nucleotide" x="-45.703" y="294.319">G</text>
      <text class="nucleotide" x="-32.853" y="302.059">G</text>
      <text class="nucleotide" x="-20.004" y="309.798">G</text>
      <text class="nucleotide" x="-7.155" y="317.538">A</text>
      <text class="nucleotide" x="0.951" y="335.100">C</text>
      <text class="nucleotide" x="21.116" y="335.134">U</text>
      <text class="nucleotide" x="33.746" y="343.228">U</text>
      <text class="nucleotide" x="46.375" y="351.322">C</text>
      <text class="nucleotide" x="59.004" y="359.415">C</text>
      <text class="nucleotide" x="71.633" y="367.509">C</text>
      <text class="nucleotide" x="84.262" y="375.603">C</text>
      <text class="nucleotide" x="85.198" y="383.044">G</text>
      <text class="nucleotide" x="73.244" y="392.106">A</text>
      <text class="nucleotide" x="87.069" y="397.927">C</text>
      <text class="nucleotide" x="88.005" y="405.368">C</text>
      <text class="nucleotide" x="77.773" y="416.337">A</text>
      <text class="nucleotide" x="67.542" y="427.306">C</text>
      <text class="nucleotide" x="52.471" y="432.119">C</text>
      <text class="nucleotide" x="49.447" y="446.704">C</text>
      <text class="nucleotide" x="39.215" y="457.672">C</text>
      <text class="nucleotide" x="28.984" y="468.641">C</text>
      <text class="nucleotide" x="18.676" y="479.539">C</text>
      <text class="nucleotide" x="8.293" y="490.364">C</text>
      <text class="nucleotide" x="-7.061" y="488.123">C</text>
      <text class="nucleotide" x="-20.785" y="495.366">C</text>
      <text class="nucleotide" x="-27.600" y="509.306">C</text>
      <text class="nucleotide" x="-24.887" y="524.584">U</text>
      <text class="nucleotide" x="-13.688" y="535.325">U</text>
      <text class="nucleotide" x="1.690" y="537.399">C</text>
      <text class="nucleotide" x="15.334" y="530.008">G</text>
      <text class="nucleotide" x="21.997" y="515.995">U</text>
      <text class="nucleotide" x="19.118" y="500.747">G</text>
      <text class="nucleotide" x="29.502" y="489.922">G</text>
      <text class="nucleotide" x="36.393" y="487.273">U</text>
      <text class="nucleotide" x="39.953" y="478.873">G</text>
      <text class="nucleotide" x="50.184" y="467.904">G</text>
      <text class="nucleotide" x="60.416" y="456.935">G</text>
      <text class="nucleotide" x="74.755" y="452.906">C</text>
      <text class="nucleotide" x="78.511" y="437.537">G</text>
      <text class="nucleotide" x="88.742" y="426.569">U</text>
      <text class="nucleotide" x="98.974" y="415.600">G</text>
      <text class="nucleotide" x="106.008" y="418.203">U</text>
      <text class="nucleotide" x="100.801" y="432.271">A</text>
      <text class="nucleotide" x="95.595" y="446.338">A</text>
      <text class="nucleotide" x="109.663" y="451.544">U</text>
      <text class="nucleotide" x="114.869" y="437.477">U</text>
      <text class="nucleotide" x="120.075" y="423.409">A</text>
      <text class="nucleotide" x="127.109" y="426.013">U</text>
      <text class="nucleotide" x="127.734" y="441.000">U</text>
      <text class="nucleotide" x="128.359" y="455.987">U</text>
      <text class="nucleotide" x="128.985" y="470.974">U</text>
      <text class="nucleotide" x="129.610" y="485.961">A</text>
      <text class="nucleotide" x="130.236" y="500.947">U</text>
      <text class="nucleotide" x="119.353" y="512.408">U</text>
      <text class="nucleotide" x="119.845" y="528.204">A</text>
      <text class="nucleotide" x="131.419" y="538.966">A</text>
      <text class="nucleotide" x="147.210" y="538.307">G</text>
      <text class="nucleotide" x="157.848" y="526.619">C</text>
      <text class="nucleotide" x="157.022" y="510.836">U</text>
      <text class="nucleotide" x="145.223" y="500.322">A</text>
      <text class="nucleotide" x="144.597" y="485.335">U</text>
      <text class="nucleotide" x="143.972" y="470.348">A</text>
      <text class="nucleotide" x="143.346" y="455.361">A</text>
      <text class="nucleotide" x="142.721" y="440.374">A</text>
      <text class="nucleotide" x="142.096" y="425.387">A</text>
      <text class="nucleotide" x="153.382" y="435.267">A</text>
      <text class="nucleotide" x="165.208" y="444.495">A</text>
      <text class="nucleotide" x="177.536" y="453.040">A</text>
      <text class="nucleotide" x="190.326" y="460.877">A</text>
      <text class="nucleotide" x="203.538" y="467.980">A</text>
      <text class="nucleotide" x="217.129" y="474.327">A</text>
      <text class="nucleotide" x="231.056" y="479.897">A</text>
      <text class="nucleotide" x="245.276" y="484.672">A</text>
      <text class="nucleotide" x="259.742" y="488.638">A</text>
      <text class="nucleotide" x="274.409" y="491.781">A</text>
      <text class="nucleotide" x="289.230" y="494.093">A</text>
      <text class="nucleotide" x="304.158" y="495.564">A</text>
      <text class="nucleotide" x="319.145" y="496.192">A</text>
      <text class="nucleotide" x="334.143" y="495.973">A</text>
      <text class="nucleotide" x="349.105" y="494.908">A</text>
      <text class="nucleotide" x="363.983" y="493.002">A</text>
      <text class="nucleotide" x="378.731" y="490.259">A</text>
      <text class="nucleotide" x="393.299" y="486.688">A</text>
      <text class="nucleotide" x="407.644" y="482.302">A</text>
      <text class="nucleotide" x="421.718" y="477.114">A</text>
      <text class="nucleotide" x="435.477" y="471.140">A</text>
      <text class="nucleotide" x="448.877" y="464.399">A</text>
      <text class="nucleotide" x="461.876" y="456.914">A</text>
      <text class="nucleotide" x="474.432" y="448.707">A</text>
      <text class="nucleotide" x="486.505" y="439.805">A</text>
      <text class="nucleotide" x="498.056" y="430.237">A</text>
      <text class="nucleotide" x="509.050" y="420.032">A</text>
      <text class="nucleotide" x="519.451" y="409.223">A</text>
      <text class="nucleotide" x="529.225" y="397.845">A</text>
      <text class="nucleotide" x="538.342" y="385.933">A</text>
      <text class="nucleotide" x="546.772" y="373.527">A</text>
      <text class="nucleotide" x="554.490" y="360.664">A</text>
      <text class="nucleotide" x="561.470" y="347.387">A</text>
      <text class="nucleotide" x="567.689" y="333.737">A</text>
      <text class="nucleotide" x="573.129" y="319.759">A</text>
      <text class="nucleotide" x="577.772" y="305.495">A</text>
      <text class="nucleotide" x="581.603" y="290.993">A</text>
      <text class="nucleotide" x="584.610" y="276.297">A</text>
      <text class="nucleotide" x="586.783" y="261.455">A</text>
      <text class="nucleotide" x="588.116" y="246.515">A</text>
      <text class="nucleotide" x="588.604" y="231.523">A</text>
      <text class="nucleotide" x="588.245" y="216.527">A</text>
      <text class="nucleotide" x="587.041" y="201.575">A</text>
      <text class="nucleotide" x="584.996" y="186.715">A</text>
      <text class="nucleotide" x="582.116" y="171.994">A</text>
      <text class="nucleotide" x="578.411" y="157.459">A</text>
      <text class="nucleotide" x="573.891" y="143.156">A</text>
      <text class="nucleotide" x="568.572" y="129.131">A</text>
      <text class="nucleotide" x="562.470" y="115.428">A</text>
      <text class="nucleotide" x="555.605" y="102.091">A</text>
      <text class="nucleotide" x="547.999" y="89.163">A</text>
      <text class="nucleotide" x="539.676" y="76.684">A</text>
      <text class="nucleotide" x="530.662" y="64.695">A</text>
      <text class="nucleotide" x="520.986" y="53.232">A</text>
      <text class="nucleotide" x="510.679" y="42.334">A</text>
      <text class="nucleotide" x="499.774" y="32.035">A</text>
      <text class="nucleotide" x="488.305" y="22.367">A</text>
      <text class="nucleotide" x="476.309" y="13.361">A</text>
      <text class="nucleotide" x="463.825" y="5.047">A</text>
      <text class="nucleotide" x="450.891" y="-2.551">A</text>
      <text class="nucleotide" x="437.550" y="-9.407">A</text>
      <text class="nucleotide" x="423.843" y="-15.499">A</text>
      <text class="nucleotide" x="409.814" y="-20.809">A</text>
      <text class="nucleotide" x="395.508" y="-25.318">A</text>
      <text class="nucleotide" x="380.970" y="-29.014">A</text>
      <text class="nucleotide" x="366.247" y="-31.884">A</text>
      <text class="nucleotide" x="351.386" y="-33.919">A</text>
      <text class="nucleotide" x="336.434" y="-35.113">A</text>
      <text class="nucleotide" x="321.438" y="-35.461">A</text>
      <text class="nucleotide" x="306.446" y="-34.963">A</text>
      <text class="nucleotide" x="291.506" y="-33.620">A</text>
      <text class="nucleotide" x="276.666" y="-31.437">A</text>
      <text class="nucleotide" x="261.972" y="-28.420">A</text>
      <text class="nucleotide" x="247.472" y="-24.579">A</text>
      <text class="nucleotide" x="233.212" y="-19.926">A</text>
      <text class="nucleotide" x="219.237" y="-14.477">A</text>
      <text class="nucleotide" x="205.592" y="-8.248">A</text>
      <text class="nucleotide" x="192.319" y="-1.259">A</text>
      <text class="nucleotide" x="179.462" y="6.467">A</text>
      <text class="nucleotide" x="167.061" y="14.906">A</text>
      <text class="nucleotide" x="155.156" y="24.031">A</text>
      <text class="nucleotide" x="143.785" y="33.814">A</text>
      <text class="nucleotide" x="132.983" y="44.221">A</text>
      <text class="nucleotide" x="122.785" y="55.222">A</text>
      <text class="nucleotide" x="113.225" y="66.780">A</text>
      <text class="nucleotide" x="104.331" y="78.859">A</text>
      <text class="nucleotide" x="96.133" y="91.421">A</text>
      <text class="nucleotide" x="88.656" y="104.424">A</text>
      <text class="nucleotide" x="81.925" y="117.829">A</text>
      <text class="nucleotide" x="75.960" y="131.592">A</text>
      <text class="nucleotide" x="70.782" y="145.670">A</text>
      <text class="nucleotide" x="66.405" y="160.017">A</text>
      <text class="nucleotide" x="62.845" y="174.589">A</text>
      <text class="nucleotide" x="60.112" y="189.338">A</text>
      <text class="nucleotide" x="58.216" y="204.217">A</text>
      <text class="nucleotide" x="57.161" y="219.180">A</text>
      <text class="nucleotide" x="56.953" y="234.179">A</text>
      <text class="nucleotide" x="57.590" y="249.165">A</text>
      <text class="nucleotide" x="59.072" y="264.092">A</text>
      <text class="nucleotide" x="61.394" y="278.911">A</text>
      <text class="nucleotide" x="64.547" y="293.576">A</text>
      <text class="nucleotide" x="68.523" y="308.039">A</text>
    </g>
  </g>
</svg>
